<svg xmlns="http://www.w3.org/2000/svg" xmlns:xlink="http://www.w3.org/1999/xlink" fill="none" version="1.1" width="16" height="16" viewBox="0 0 16 16"><defs><clipPath id="master_svg0_87_34136"><rect x="0" y="0" width="16" height="16" rx="0"/></clipPath></defs><g clip-path="url(#master_svg0_87_34136)"><g><path d="M9.333333373069763,2L9.333333373069763,3.33333L2.6666633730697633,3.33333L2.6666633730697633,12.2567L3.8418833730697632,11.3333L13.333333373069763,11.3333L13.333333373069763,6.66667L14.666633373069763,6.66667L14.666633373069763,12C14.666633373069763,12.3682,14.368233373069764,12.6667,14.000033373069764,12.6667L4.303033373069763,12.6667L1.3333333730697632,15L1.3333333730697632,2.66667C1.3333333730697632,2.29848,1.6318133730697633,2,2.000000373069763,2L9.333333373069763,2ZM12.666633373069763,2L12.666633373069763,0L14.000033373069764,0L14.000033373069764,2L16.000033373069762,2L16.000033373069762,3.33333L14.000033373069764,3.33333L14.000033373069764,5.33333L12.666633373069763,5.33333L12.666633373069763,3.33333L10.666663373069763,3.33333L10.666663373069763,2L12.666633373069763,2Z" fill="#2F69FE" fill-opacity="1"/></g><g><line x1="5" y1="5.25" x2="9" y2="5.25" fill-opacity="0" stroke-opacity="1" stroke="#2F69FE" fill="none" stroke-width="1.5"/></g><g><path d="M11,9L5,9L5,7.5L11,7.5L11,9Z" fill-rule="evenodd" fill="#2F69FE" fill-opacity="1"/></g></g></svg>