<svg xmlns="http://www.w3.org/2000/svg" xmlns:xlink="http://www.w3.org/1999/xlink" fill="none" version="1.1" width="16" height="16" viewBox="0 0 16 16"><defs><clipPath id="master_svg0_164_38065/136_36867"><rect x="0" y="0" width="16" height="16" rx="0"/></clipPath></defs><g clip-path="url(#master_svg0_164_38065/136_36867)"><g><path d="M15,7.5C15,8.32843,14.3284,9,13.5,9C12.6716,9,12,8.32843,12,7.5C12,6.671573,12.6716,6,13.5,6C14.3284,6,15,6.671573,15,7.5ZM5,7.5C5,8.32843,4.32843,9,3.5,9C2.671573,9,2,8.32843,2,7.5C2,6.671573,2.671573,6,3.5,6C4.32843,6,5,6.671573,5,7.5ZM10,7.5C10,8.32843,9.32843,9,8.5,9C7.67157,9,7,8.32843,7,7.5C7,6.671573,7.67157,6,8.5,6C9.32843,6,10,6.671573,10,7.5Z" fill="#2F69FE" fill-opacity="1"/></g></g></svg>