<svg xmlns="http://www.w3.org/2000/svg" xmlns:xlink="http://www.w3.org/1999/xlink" fill="none" version="1.1" width="16" height="16" viewBox="0 0 16 16"><defs><clipPath id="master_svg0_87_34137"><rect x="0" y="0" width="16" height="16" rx="0"/></clipPath></defs><g clip-path="url(#master_svg0_87_34137)"><g><path d="M3.8418833730697632,11.33333L8.722003373069764,11.33333C8.685603373069764,11.55013,8.666663373069763,11.77287,8.666663373069763,12C8.666663373069763,12.2271,8.685603373069764,12.4499,8.722003373069764,12.6667L4.303033373069763,12.6667L1.3333333730697632,15L1.3333333730697632,2.666667C1.3333333730697632,2.29848,1.6318133730697633,2,2.000000373069763,2L14.000033373069764,2C14.368233373069764,2,14.666633373069763,2.29848,14.666633373069763,2.666667L14.666633373069763,8.535129999999999C14.261733373069763,8.30087,13.811933373069763,8.1356,13.333333373069763,8.05533L13.333333373069763,3.33333L2.6666633730697633,3.33333L2.6666633730697633,12.2567L3.8418833730697632,11.33333ZM15.966433373069764,14.357L14.964133373069764,13.3547C15.198733373069762,12.9577,15.333333373069763,12.4945,15.333333373069763,12C15.333333373069763,10.52727,14.139433373069764,9.33333,12.666633373069763,9.33333C11.193933373069763,9.33333,10.000003373069763,10.52727,10.000003373069763,12C10.000003373069763,13.4727,11.193933373069763,14.6667,12.666633373069763,14.6667C13.161233373069763,14.6667,13.624333373069764,14.5321,14.021333373069764,14.2975L15.023633373069764,15.2998L15.966433373069764,14.357ZM14.000033373069764,12C14.000033373069764,12.7364,13.403033373069762,13.3333,12.666633373069763,13.3333C11.930233373069763,13.3333,11.333333373069763,12.7364,11.333333373069763,12C11.333333373069763,11.2636,11.930233373069763,10.66667,12.666633373069763,10.66667C13.403033373069762,10.66667,14.000033373069764,11.2636,14.000033373069764,12Z" fill="#272A33" fill-opacity="1"/></g></g></svg>