<svg xmlns="http://www.w3.org/2000/svg" xmlns:xlink="http://www.w3.org/1999/xlink" fill="none" version="1.1" width="16" height="16" viewBox="0 0 16 16"><defs><clipPath id="master_svg0_183_37472"><rect x="0" y="0" width="16" height="16" rx="0"/></clipPath></defs><g clip-path="url(#master_svg0_183_37472)"><g><path d="M3.336590027256012,6.00187349319458C3.704780027256012,6.00187349319458,4.003250027256012,6.30034649319458,4.003250027256012,6.66853349319458C5.093100027256012,6.66853349319458,6.095680027256012,7.04213349319458,6.889930027256012,7.66820349319458L8.336600027256011,7.66853349319458C9.225000027256012,7.66853349319458,10.023200027256012,8.054733493194579,10.572530027256011,8.66833349319458L12.669920027256012,8.66853349319458C13.998120027256013,8.66853349319458,15.144820027256012,9.44540349319458,15.680620027256012,10.56946349319458C14.104120027256013,12.64986349319458,11.551220027256011,14.00186349319458,8.669930027256012,14.00186349319458C6.809470027256012,14.00186349319458,5.236440027256012,13.59973349319458,3.962670027256012,12.89660349319458C3.870380027256012,13.15226349319458,3.624850027256012,13.33520349319458,3.336590027256012,13.33520349319458L1.3365870272560119,13.33520349319458C0.968400027256012,13.33520349319458,0.669920027256012,13.03673349319458,0.669920027256012,12.66853349319458L0.669920027256012,6.66853349319458C0.669920027256012,6.30034649319458,0.968400027256012,6.00187349319458,1.3365870272560119,6.00187349319458L3.336590027256012,6.00187349319458ZM4.003930027256012,8.00186349319458L4.003250027256012,11.34986349319458L4.033490027256012,11.37153349319458C5.229370027256012,12.21180349319458,6.788670027256012,12.66853349319458,8.669930027256012,12.66853349319458C10.672620027256013,12.66853349319458,12.535620027256012,11.89813349319458,13.893320027256012,10.582263493194581L13.981920027256011,10.49320349319458L13.902420027256012,10.426263493194579C13.593120027256012,10.18426349319458,13.213620027256011,10.034133493194581,12.806620027256011,10.00646349319458L12.669920027256012,10.00186349319458L11.262220027256012,10.00186349319458C11.310920027256012,10.21626349319458,11.336620027256012,10.439403493194579,11.336620027256012,10.66853349319458L11.336620027256012,11.33520349319458L5.336590027256012,11.33520349319458L5.336590027256012,10.00186349319458L9.863270027256013,10.00120349319458L9.840330027256012,9.94886349319458C9.586670027256012,9.41980349319458,9.062000027256012,9.04540349319458,8.446200027256012,9.00540349319458L8.336600027256011,9.00186349319458L6.383650027256012,9.00180349319458C5.778820027256012,8.38486349319458,4.936080027256012,8.00206349319458,4.003930027256012,8.00186349319458ZM2.669920027256012,7.33520349319458L2.003250027256012,7.33520349319458L2.003250027256012,12.00186349319458L2.669920027256012,12.00186349319458L2.669920027256012,7.33520349319458Z" fill="#2F69FE" fill-opacity="1"/></g><g><path d="M10.33333,4.66667L12.33333,4.66667L9.66667,7.33333L7,4.66667L9,4.66667L9,2L10.33333,2L10.33333,4.66667Z" fill="#2F69FE" fill-opacity="1"/></g></g></svg>