<svg xmlns="http://www.w3.org/2000/svg" xmlns:xlink="http://www.w3.org/1999/xlink" fill="none" version="1.1" width="16" height="16" viewBox="0 0 16 16"><defs><clipPath id="master_svg0_102_42536"><rect x="0" y="0" width="16" height="16" rx="0"/></clipPath></defs><g clip-path="url(#master_svg0_102_42536)"><g><path d="M1.33349609375,2.666667C1.33349609375,2.29848,1.63197609375,2,2.00016309375,2L14.00019609375,2C14.36839609375,2,14.66679609375,2.29848,14.66679609375,2.666667L14.66679609375,13.3333C14.66679609375,13.7015,14.36839609375,14,14.00019609375,14L2.00016309375,14C1.63197609375,14,1.33349609375,13.7015,1.33349609375,13.3333L1.33349609375,2.666667ZM10.66682609375,12.6667L13.33349609375,12.6667L13.33349609375,3.33333L10.66682609375,3.33333L10.66682609375,12.6667ZM9.33349609375,3.33333L6.66682609375,3.33333L6.66682609375,12.6667L9.33349609375,12.6667L9.33349609375,3.33333ZM2.66682609375,3.33333L2.66682609375,12.6667L5.33349609375,12.6667L5.33349609375,3.33333L2.66682609375,3.33333Z" fill="#8792A4" fill-opacity="1"/></g></g></svg>