<svg xmlns="http://www.w3.org/2000/svg" xmlns:xlink="http://www.w3.org/1999/xlink" fill="none" version="1.1" width="16" height="16" viewBox="0 0 16 16"><defs><clipPath id="master_svg0_78_34845"><rect x="0" y="0" width="16" height="16" rx="0"/></clipPath></defs><g clip-path="url(#master_svg0_78_34845)"><g><path d="M11.333251953125,4.000003373069763L14.666551953125,4.000003373069763L14.666551953125,5.333333373069763L13.333251953125,5.333333373069763L13.333251953125,14.000033373069764C13.333251953125,14.368233373069764,13.034751953125,14.666633373069763,12.666551953125,14.666633373069763L3.333251953125,14.666633373069763C2.9650619531249998,14.666633373069763,2.666581953125,14.368233373069764,2.666581953125,14.000033373069764L2.666581953125,5.333333373069763L1.333251953125,5.333333373069763L1.333251953125,4.000003373069763L4.666581953125,4.000003373069763L4.666581953125,2.000000373069763C4.666581953125,1.6318133730697633,4.965061953125,1.3333333730697632,5.333251953125,1.3333333730697632L10.666581953125,1.3333333730697632C11.034781953125,1.3333333730697632,11.333251953125,1.6318133730697633,11.333251953125,2.000000373069763L11.333251953125,4.000003373069763ZM11.999951953125,5.333333373069763L3.999921953125,5.333333373069763L3.999921953125,13.333333373069763L11.999951953125,13.333333373069763L11.999951953125,5.333333373069763ZM5.999921953125,2.6666633730697633L5.999921953125,4.000003373069763L9.999921953125,4.000003373069763L9.999921953125,2.6666633730697633L5.999921953125,2.6666633730697633Z" fill="#2F69FE" fill-opacity="1"/></g></g></svg>