<svg xmlns="http://www.w3.org/2000/svg" xmlns:xlink="http://www.w3.org/1999/xlink" fill="none" version="1.1" width="16" height="16" viewBox="0 0 16 16"><defs><clipPath id="master_svg0_183_37752"><rect x="0" y="0" width="16" height="16" rx="0"/></clipPath></defs><g clip-path="url(#master_svg0_183_37752)"><g><path d="M8.633330190734863,6.66667L10.633330190734863,6.66667L7.966670190734863,9.33333L5.300000190734863,6.66667L7.300000190734863,6.66667L7.300000190734863,2L8.633250190734863,2L8.633330190734863,6.66667Z" fill="#2F69FE" fill-opacity="1"/></g><g><path d="" fill="#D8D8D8" fill-opacity="1"/><path d="M13.75,11L13.75,7L12.25,7L12.25,11Q12.25,11.25,12,11.25L4,11.25Q3.896447,11.25,3.8232239999999997,11.17678Q3.75,11.10355,3.75,11L3.75,7L2.25,7L2.25,11Q2.25,11.72487,2.762563,12.23744Q3.275126,12.75,4,12.75L12,12.75Q12.72488,12.75,13.2374,12.23744Q13.75,11.72487,13.75,11Z" fill-rule="evenodd" fill="#2F69FE" fill-opacity="1"/></g></g></svg>