<svg xmlns="http://www.w3.org/2000/svg" xmlns:xlink="http://www.w3.org/1999/xlink" fill="none" version="1.1" width="16" height="16" viewBox="0 0 16 16"><defs><clipPath id="master_svg0_87_35560"><rect x="0" y="0" width="16" height="16" rx="0"/></clipPath></defs><g clip-path="url(#master_svg0_87_35560)"><g><path d="M8.000003373069763,1.3333333730697632C8.368203373069763,1.3333333730697632,8.666663373069763,1.6318133730697633,8.666663373069763,2.000000373069763L8.666663373069763,4.000003373069763C8.666663373069763,4.368183373069764,8.368203373069763,4.666663373069763,8.000003373069763,4.666663373069763C7.631803373069763,4.666663373069763,7.333333373069763,4.368183373069764,7.333333373069763,4.000003373069763L7.333333373069763,2.000000373069763C7.333333373069763,1.6318133730697633,7.631803373069763,1.3333333730697632,8.000003373069763,1.3333333730697632ZM8.000003373069763,11.333333373069763C8.368203373069763,11.333333373069763,8.666663373069763,11.631833373069764,8.666663373069763,12.000033373069764L8.666663373069763,14.000033373069764C8.666663373069763,14.368233373069764,8.368203373069763,14.666633373069763,8.000003373069763,14.666633373069763C7.631803373069763,14.666633373069763,7.333333373069763,14.368233373069764,7.333333373069763,14.000033373069764L7.333333373069763,12.000033373069764C7.333333373069763,11.631833373069764,7.631803373069763,11.333333373069763,8.000003373069763,11.333333373069763ZM14.666633373069763,8.000003373069763C14.666633373069763,8.368203373069763,14.368233373069764,8.666663373069763,14.000033373069764,8.666663373069763L12.000033373069764,8.666663373069763C11.631833373069764,8.666663373069763,11.333333373069763,8.368203373069763,11.333333373069763,8.000003373069763C11.333333373069763,7.631803373069763,11.631833373069764,7.333333373069763,12.000033373069764,7.333333373069763L14.000033373069764,7.333333373069763C14.368233373069764,7.333333373069763,14.666633373069763,7.631803373069763,14.666633373069763,8.000003373069763ZM4.666663373069763,8.000003373069763C4.666663373069763,8.368203373069763,4.368183373069764,8.666663373069763,4.000003373069763,8.666663373069763L2.000000373069763,8.666663373069763C1.6318133730697633,8.666663373069763,1.3333333730697632,8.368203373069763,1.3333333730697632,8.000003373069763C1.3333333730697632,7.631803373069763,1.6318133730697633,7.333333373069763,2.000000373069763,7.333333373069763L4.000003373069763,7.333333373069763C4.368183373069764,7.333333373069763,4.666663373069763,7.631803373069763,4.666663373069763,8.000003373069763ZM12.714033373069762,12.714033373069762C12.453633373069763,12.974433373069763,12.031633373069763,12.974433373069763,11.771233373069764,12.714033373069762L10.357003373069762,11.299803373069762C10.096663373069763,11.039463373069763,10.096663373069763,10.617403373069763,10.357003373069762,10.357003373069762C10.617403373069763,10.096663373069763,11.039463373069763,10.096663373069763,11.299803373069762,10.357003373069762L12.714033373069762,11.771233373069764C12.974433373069763,12.031633373069763,12.974433373069763,12.453633373069763,12.714033373069762,12.714033373069762ZM5.642983373069764,5.642983373069764C5.382623373069763,5.903323373069763,4.960523373069764,5.903323373069763,4.700163373069763,5.642983373069764L3.285953373069763,4.228763373069763C3.025603373069763,3.968413373069763,3.025603373069763,3.546303373069763,3.285953373069763,3.285953373069763C3.546303373069763,3.025603373069763,3.968413373069763,3.025603373069763,4.228763373069763,3.285953373069763L5.642983373069764,4.700163373069763C5.903323373069763,4.960523373069764,5.903323373069763,5.382623373069763,5.642983373069764,5.642983373069764ZM3.285953373069763,12.714033373069762C3.025603373069763,12.453633373069763,3.025603373069763,12.031633373069763,3.285953373069763,11.771233373069764L4.700163373069763,10.357003373069762C4.960523373069764,10.096663373069763,5.382623373069763,10.096663373069763,5.642983373069764,10.357003373069762C5.903323373069763,10.617403373069763,5.903323373069763,11.039463373069763,5.642983373069764,11.299803373069762L4.228763373069763,12.714033373069762C3.968413373069763,12.974433373069763,3.546303373069763,12.974433373069763,3.285953373069763,12.714033373069762ZM10.357003373069762,5.642983373069764C10.096663373069763,5.382623373069763,10.096663373069763,4.960523373069764,10.357003373069762,4.700163373069763L11.771233373069764,3.285953373069763C12.031633373069763,3.025603373069763,12.453633373069763,3.025603373069763,12.714033373069762,3.285953373069763C12.974433373069763,3.546303373069763,12.974433373069763,3.968413373069763,12.714033373069762,4.228763373069763L11.299803373069762,5.642983373069764C11.039463373069763,5.903323373069763,10.617403373069763,5.903323373069763,10.357003373069762,5.642983373069764Z" fill="#2F69FE" fill-opacity="1"/></g></g></svg>