<svg xmlns="http://www.w3.org/2000/svg" xmlns:xlink="http://www.w3.org/1999/xlink" fill="none" version="1.1" width="24" height="24" viewBox="0 0 24 24"><g><g></g><g><rect x="4" y="9" width="15.999999046325684" height="11" rx="0.9999999403953552" fill-opacity="0" stroke-opacity="1" stroke="#8792A4" fill="none" stroke-width="1.9999998807907104"/></g><g><path d="M7,8L7,9L9,9L9,8Q9,6.75736,9.87868,5.87868Q10.75736,5,12,5Q13.24264,5,14.12132,5.87868Q15,6.75736,15,8L15,9L17,9L17,8Q17,5.92893,15.53553,4.464466Q14.071069999999999,3,12,3Q9.92893,3,8.464466,4.464466Q7,5.92893,7,8Z" fill-rule="evenodd" fill="#8792A4" fill-opacity="1"/></g><g><path d="M11,16.5L11,12L13,12L13,16.5L11,16.5Z" fill-rule="evenodd" fill="#8792A4" fill-opacity="1"/></g></g></svg>