<svg xmlns="http://www.w3.org/2000/svg" xmlns:xlink="http://www.w3.org/1999/xlink" fill="none" version="1.1" width="208" height="27.000003814697266" viewBox="0 0 208 27.000003814697266"><defs><clipPath id="master_svg0_164_38033/87_34132/53_29836"><rect x="0" y="0" width="208" height="27.000003814697266" rx="0"/></clipPath></defs><g clip-path="url(#master_svg0_164_38033/87_34132/53_29836)"><g><g><g><path d="M110.80126953125,18.580256328125L116.33350953125,18.587536328125L117.00385953125,17.135986328125L111.70952153125,17.166758528125L110.80126953125,18.580256328125Z" fill="#272A33" fill-opacity="1"/></g><g><path d="M36.474609375,12.498291015625L36.474609375,20.118031015625L38.421479375,20.118031015625L38.421479375,15.746171015625L41.554219375,17.541831015625L44.662459375,15.726971015625L44.686939375,20.118031015625L46.633809375,20.118031015625L46.633809375,12.498291015625L41.583659374999996,15.006661015625L36.474609375,12.498291015625Z" fill="#272A33" fill-opacity="1"/></g><g><rect x="47.859619140625" y="12.498291015625" width="2.101391315460205" height="7.619735240936279" rx="0" fill="#272A33" fill-opacity="1"/></g><g><path d="M57.427793046875,17.628851015625L51.213623046875,12.498291015625L51.213623046875,20.172291015625L53.276303046875,20.172291015625L53.276303046875,16.759311015625002L57.762973046875,20.172291015625L59.490803046875,20.172291015625L59.490803046875,12.498291015625L57.427793046875,12.498291015625L57.427793046875,17.628851015625Z" fill="#272A33" fill-opacity="1"/></g><g><path d="M70.53857421875,20.118031015625L72.64029421875,20.118031015625L72.64029421875,17.207641015625L75.37398421875,17.207641015625L75.37398421875,15.531761015625L72.64029421875,15.531761015625L72.64029421875,14.174181015625L77.35858421875,14.174181015625L77.35858421875,12.498291015625L70.53857421875,12.498291015625L70.53857421875,20.118031015625Z" fill="#272A33" fill-opacity="1"/></g><g><path d="M80.685618515625,12.498291015625L78.584228515625,12.498291015625L78.584228515625,20.118031015625L83.834228515625,20.118031015625L83.834228515625,18.416001015625L80.685618515625,18.416001015625L80.685618515625,12.498291015625Z" fill="#272A33" fill-opacity="1"/></g><g><path d="M91.2768196875,13.439194140625C90.8995796875,13.085683140625001,90.4562096875,12.810193140625,89.9721796875,12.628547140625Q89.2257196875,12.343994140625,88.3346796875,12.343994140625Q87.4436296875,12.343994140625,86.6971696875,12.633841140625C86.2132396875,12.818464140625,85.7699596875,13.095734140625,85.3921996875,13.450114140625C85.0229306875,13.796684140625,84.7287696875,14.215394140625,84.5279496875,14.680304140625001Q84.2218897165,15.383414140625,84.2218897165,16.231784140625C84.2163562675,16.762864140625,84.3205465875,17.289364140625,84.5279496875,17.778294140625C84.7278326875,18.245084140625,85.0220736875,18.665494140625,85.3921996875,19.013124140625C85.7713796875,19.368114140625,86.2163996875,19.645414140625,86.7021396875,19.829394140625Q87.4538896875,20.119244140625,88.34526968750001,20.119244140625C88.9004196875,20.124824140625,89.4518796875,20.028364140625,89.9721796875,19.834694140625C90.4563396875,19.653294140625,90.8997596875,19.377774140625,91.2768196875,19.024044140625C91.6478796875,18.674954140625,91.9422996875,18.252534140625002,92.1413996875,17.783594140625C92.3482996875,17.292644140625,92.4524596875,16.764524140625,92.4474596875,16.231784140625Q92.4474596875,15.384084140625,92.1413996875,14.674684140625C91.9411896875,14.207804140625,91.6468796875,13.787214140625,91.2768196875,13.439194140625ZM90.5091896875,17.203234140625C90.3944196875,17.487354140625,90.2246296875,17.745984140624998,90.0095696875,17.964244140625C89.7972896875,18.180864140625,89.5435296875,18.352484140625002,89.2634396875,18.468834140625C88.9687696875,18.589284140625,88.6529796875,18.649584140625,88.3346696875,18.646184140625C88.0145496875,18.649324140624998,87.6969796875,18.589054140625,87.4002796875,18.468834140625C87.1192096875,18.354314140625,86.8650896875,18.182464140625,86.6541496875,17.964244140625C86.4419996875,17.744764140625,86.2742596875,17.486354140625,86.1601496875,17.203234140625C85.9236796875,16.576844140625,85.9236796875,15.885724140625,86.1601496875,15.259344140625C86.2742596875,14.976214140625,86.4419996875,14.717804140625,86.6541496875,14.498324140625C86.8650896875,14.280114140625,87.1192096875,14.108264140625,87.4002796875,13.993744140625001C87.6969796875,13.873524140625,88.0145496875,13.813254140625,88.3346696875,13.816394140625C88.6529796875,13.812994140625,88.9687696875,13.873294140625,89.2634396875,13.993744140625001C89.5435296875,14.110094140625,89.7972896875,14.281704140625,90.0095696875,14.498324140625C90.2246296875,14.716594140625,90.3944296875,14.975224140625,90.5091896875,15.259344140625C90.7452096875,15.885814140625,90.7452096875,16.576764140625002,90.5091896875,17.203234140625Z" fill="#272A33" fill-opacity="1"/></g><g><path d="M103.323288671875,12.498291015625L101.72085867187499,17.899501015625L99.053668671875,13.323495015625L96.480108671875,17.825391015625L94.951798671875,12.498291015625L92.785888671875,12.498291015625L95.075878671875,20.118031015625L97.306318671875,20.118031015625L99.044068671875,17.238751015625L100.543928671875,20.118031015625L103.031488671875,20.118031015625L105.321488671875,12.498291015625L103.323288671875,12.498291015625Z" fill="#272A33" fill-opacity="1"/></g><g><rect x="117.8984375" y="12.498291015625" width="2.101391315460205" height="7.619735240936279" rx="0" fill="#272A33" fill-opacity="1"/></g><g><rect x="104.50244140625" y="18.364501953125" width="1.754302740097046" height="1.754302740097046" rx="0" fill="#272A33" fill-opacity="1"/></g><g><path d="M67.754467890625,12.846372015625Q67.011987890625,12.498621204625,66.026307890625,12.498291015625L60.715087890625,12.498291015625L60.715087890625,20.118031015625L66.026307890625,20.118031015625Q67.011987890625,20.118031015625,67.754467890625,19.769611015625Q68.496947890625,19.421201015625,68.904257890625,18.790881015625Q69.311237890625,18.159901015625,69.311567890625,17.332051015624998L69.311567890625,15.283931015625Q69.311567890625,14.456741015625,68.904257890625,13.825431015625Q68.496947890625,13.194120015625,67.754467890625,12.846372015625ZM67.458667890625,17.028971015625Q67.445427890625,17.712561015625,67.070877890625,18.120861015625Q66.696337890625,18.529161015625,66.092157890625,18.528171015625L62.804577890625,18.528171015625C62.765677890625,18.534581015625,62.731987890625,18.500891015625,62.738397890625,18.461991015625L62.738397890625,14.153991015625C62.732317890625,14.115201015625,62.765787890625,14.081731015625,62.804577890625,14.087821015625L66.080237890625,14.087821015625Q66.711217890625,14.087821015625,67.085447890625,14.495121015625Q67.459667890625,14.902431015625,67.459987890625,15.587011015625L67.458667890625,17.028971015625Z" fill="#272A33" fill-opacity="1"/></g><g><path d="M112.72964234375,16.949891015625L114.84592234375,16.937321015625L111.89782234375,12.498291015625L106.83740234375,20.118031015625L108.97751234374999,20.118031015625L111.87201234375,15.615801015625L112.72964234375,16.949891015625Z" fill="#272A33" fill-opacity="1"/></g><g><path d="M113.903076171875,18.776123046875L114.766002171875,20.118153046875L116.957396171875,20.118153046875L116.068326171875,18.779101816875L113.903076171875,18.776123046875Z" fill="#272A33" fill-opacity="1"/></g><g><g><path d="M9.52459,14.214944140625L7.67532,22.894444140625L0,26.002344140625L5.1385,0.750244140625L19.5498,19.749444140625L19.5501,19.750144140625" fill="#2F69FE" fill-opacity="1"/></g><g><path d="M27.84588203125,8.287841796875Q27.85638203125,8.289826966875,29.28148203125,27.068641796875L23.55306203125,23.121041796874998L16.68408203125,14.190331796875L27.84588203125,8.287841796875Z" fill="#16D6EF" fill-opacity="1" style="mix-blend-mode:passthrough"/></g></g></g></g></g></svg>