<svg xmlns="http://www.w3.org/2000/svg" xmlns:xlink="http://www.w3.org/1999/xlink" fill="currentColor" version="1.1" width="16" height="16" viewBox="0 0 16 16"><defs><clipPath id="master_svg0_324_39662/89_60830"><rect x="0" y="0" width="16" height="16" rx="0"/></clipPath></defs><g clip-path="url(#master_svg0_324_39662/89_60830)"><g><path d="M1.333251953125,2.666667C1.333251953125,2.29848,1.631731953125,2,1.999918953125,2L13.999951953125,2C14.368151953125,2,14.666551953125,2.29848,14.666551953125,2.666667L14.666551953125,13.3333C14.666551953125,13.7015,14.368151953125,14,13.999951953125,14L1.999918953125,14C1.631731953125,14,1.333251953125,13.7015,1.333251953125,13.3333L1.333251953125,2.666667ZM2.666581953125,12.6667L13.333251953125,12.6667L13.333251953125,6L2.666581953125,6L2.666581953125,12.6667ZM7.333251953125,8.66667L3.999921953125,8.66667L3.999921953125,11.33333L7.333251953125,11.33333L7.333251953125,8.66667Z" fill="currentColor" fill-opacity="1"/></g></g></svg>