<svg xmlns="http://www.w3.org/2000/svg" xmlns:xlink="http://www.w3.org/1999/xlink" fill="none" version="1.1" width="24" height="24" viewBox="0 0 24 24"><defs><clipPath id="master_svg0_164_38032"><rect x="0" y="0" width="24" height="24" rx="0"/></clipPath></defs><g clip-path="url(#master_svg0_164_38032)"><g><path d="M15.5,5C13.567,5,12,6.567,12,8.5C12,10.433,13.567,12,15.5,12C17.433,12,19,10.433,19,8.5C19,6.567,17.433,5,15.5,5ZM10,8.5C10,5.4624299999999995,12.4624,3,15.5,3C18.537599999999998,3,21,5.4624299999999995,21,8.5C21,9.657499999999999,20.6424,10.7315,20.0317,11.6175L22.7071,14.2929L21.2929,15.7071L18.6175,13.0317C17.7315,13.6424,16.6575,14,15.5,14C12.4624,14,10,11.5376,10,8.5ZM3,4L8,4L8,6L3,6L3,4ZM3,11L8,11L8,13L3,13L3,11ZM21,18L21,20L3,20L3,18L21,18Z" fill="#2F69FE" fill-opacity="1"/></g></g></svg>