<svg xmlns="http://www.w3.org/2000/svg" xmlns:xlink="http://www.w3.org/1999/xlink" fill="none" version="1.1" width="24" height="24" viewBox="0 0 24 24"><defs><clipPath id="master_svg0_164_38031"><rect x="0" y="0" width="24" height="24" rx="0"/></clipPath></defs><g clip-path="url(#master_svg0_164_38031)"><g><path d="M3,3L21,3C21.5523,3,22,3.44772,22,4L22,20C22,20.5523,21.5523,21,21,21L3,21C2.44772,21,2,20.5523,2,20L2,4C2,3.44772,2.44772,3,3,3ZM4,5L4,19L20,19L20,5L4,5ZM7,13L9,13L9,17L7,17L7,13ZM11,7L13,7L13,17L11,17L11,7ZM15,10L17,10L17,17L15,17L15,10Z" fill="#F5B41D" fill-opacity="1"/></g></g></svg>