<svg xmlns="http://www.w3.org/2000/svg" xmlns:xlink="http://www.w3.org/1999/xlink" fill="none" version="1.1" width="16" height="16" viewBox="0 0 16 16"><defs><clipPath id="master_svg0_102_42535"><rect x="16" y="0" width="16" height="16" rx="0"/></clipPath></defs><g transform="matrix(0,1,-1,0,16,-16)" clip-path="url(#master_svg0_102_42535)"><g><path d="M17.333343505859375,2.666667C17.333343505859375,2.29848,17.631823505859376,2,18.000010505859375,2L30.000043505859374,2C30.368243505859375,2,30.666643505859376,2.29848,30.666643505859376,2.666667L30.666643505859376,13.3333C30.666643505859376,13.7015,30.368243505859375,14,30.000043505859374,14L18.000010505859375,14C17.631823505859376,14,17.333343505859375,13.7015,17.333343505859375,13.3333L17.333343505859375,2.666667ZM26.666673505859375,12.6667L29.333343505859375,12.6667L29.333343505859375,3.33333L26.666673505859375,3.33333L26.666673505859375,12.6667ZM25.333343505859375,3.33333L22.666673505859375,3.33333L22.666673505859375,12.6667L25.333343505859375,12.6667L25.333343505859375,3.33333ZM18.666673505859375,3.33333L18.666673505859375,12.6667L21.333343505859375,12.6667L21.333343505859375,3.33333L18.666673505859375,3.33333Z" fill="#8792A4" fill-opacity="1"/></g></g></svg>