<svg xmlns="http://www.w3.org/2000/svg" xmlns:xlink="http://www.w3.org/1999/xlink" fill="none" version="1.1" width="16" height="16" viewBox="0 0 16 16"><defs><clipPath id="master_svg0_76_34117"><rect x="0" y="0" width="16" height="16" rx="0"/></clipPath></defs><g clip-path="url(#master_svg0_76_34117)"><g><path d="M14.000033373069764,2C14.368233373069764,2,14.666633373069763,2.29848,14.666633373069763,2.666667L14.666633373069763,13.3333C14.666633373069763,13.7015,14.368233373069764,14,14.000033373069764,14L2.000000373069763,14C1.6318133730697633,14,1.3333333730697632,13.7015,1.3333333730697632,13.3333L1.3333333730697632,2.666667C1.3333333730697632,2.29848,1.6318133730697633,2,2.000000373069763,2L14.000033373069764,2ZM4.944023373069763,9.33333L2.6666633730697633,9.33333L2.6666633730697633,12.6667L13.333333373069763,12.6667L13.333333373069763,9.33333L11.056003373069764,9.33333C10.541603373069764,10.5106,9.366863373069764,11.33333,8.000003373069763,11.33333C6.633123373069763,11.33333,5.458403373069763,10.5106,4.944023373069763,9.33333ZM13.333333373069763,3.33333L2.6666633730697633,3.33333L2.6666633730697633,8L6.000003373069763,8C6.000003373069763,9.1046,6.8954033730697635,10,8.000003373069763,10C9.104603373069764,10,10.000003373069763,9.1046,10.000003373069763,8L13.333333373069763,8L13.333333373069763,3.33333Z" fill="#8792A4" fill-opacity="1"/></g></g></svg>