<svg xmlns="http://www.w3.org/2000/svg" xmlns:xlink="http://www.w3.org/1999/xlink" fill="none" version="1.1" width="12" height="12" viewBox="0 0 12 12"><defs><clipPath id="master_svg0_343_38470"><rect x="0" y="0" width="12" height="12" rx="0"/></clipPath></defs><g clip-path="url(#master_svg0_343_38470)"><g><path d="M11,6Q11,6.12274,10.99398,6.24534Q10.98795,6.36793,10.97592,6.49009Q10.96389,6.61224,10.94588,6.73365Q10.92787,6.85507,10.90392,6.97545Q10.87998,7.09584,10.85015,7.2149Q10.82033,7.33396,10.7847,7.45142Q10.74907,7.56888,10.70772,7.68445Q10.66637,7.80002,10.6194,7.91342Q10.57242,8.02682,10.51995,8.13777Q10.46747,8.24873,10.40961,8.35698Q10.35174,8.46523,10.28864,8.570509999999999Q10.22554,8.67579,10.15735,8.77785Q10.08915,8.879909999999999,10.01604,8.9785Q9.94292,9.07708,9.86505,9.17197Q9.78718,9.26685,9.70475,9.35779Q9.62232,9.44874,9.53553,9.53553Q9.44874,9.62232,9.35779,9.70475Q9.26685,9.78718,9.17197,9.86505Q9.07708,9.94292,8.9785,10.01604Q8.879909999999999,10.08915,8.77785,10.15735Q8.67579,10.22554,8.570509999999999,10.28864Q8.46523,10.35174,8.35698,10.40961Q8.24873,10.46747,8.13777,10.51995Q8.02682,10.57242,7.91342,10.6194Q7.80002,10.66637,7.68445,10.70772Q7.56888,10.74907,7.45142,10.7847Q7.33396,10.82033,7.2149,10.85015Q7.09584,10.87998,6.97545,10.90392Q6.85507,10.92787,6.73365,10.94588Q6.61224,10.96389,6.49009,10.97592Q6.36793,10.98795,6.24534,10.99398Q6.12274,11,6,11Q5.87726,11,5.75466,10.99398Q5.63207,10.98795,5.50991,10.97592Q5.38776,10.96389,5.26635,10.94588Q5.14493,10.92787,5.02455,10.90392Q4.90416,10.87998,4.7851,10.85015Q4.66603,10.82033,4.548579999999999,10.7847Q4.43112,10.74907,4.31555,10.70772Q4.19998,10.66637,4.08658,10.6194Q3.97318,10.57242,3.86222,10.51995Q3.75127,10.46747,3.64302,10.40961Q3.53477,10.35174,3.42949,10.28864Q3.32421,10.22554,3.22215,10.15735Q3.12009,10.08915,3.0215,10.01604Q2.92291,9.94292,2.82803,9.86505Q2.73315,9.78718,2.6422,9.70475Q2.55126,9.62232,2.46447,9.53553Q2.37767,9.44874,2.2952399999999997,9.35779Q2.21282,9.26685,2.13495,9.17197Q2.05708,9.07708,1.983962,8.9785Q1.910844,8.879909999999999,1.842652,8.77785Q1.774459,8.67579,1.711357,8.570509999999999Q1.648254,8.46523,1.5903939999999999,8.35698Q1.532533,8.24873,1.480053,8.13777Q1.427574,8.02682,1.380602,7.91342Q1.333631,7.80002,1.2922799999999999,7.68445Q1.250929,7.56888,1.215298,7.45142Q1.179668,7.33396,1.149844,7.2149Q1.12002,7.09584,1.0960736,6.97545Q1.0721276,6.85507,1.0541174,6.73365Q1.0361073,6.61224,1.0240764,6.49009Q1.0120454,6.36793,1.00602272,6.24534Q1,6.12274,1,6Q1,5.87726,1.00602272,5.75466Q1.0120454,5.63207,1.0240764,5.50991Q1.0361073,5.38776,1.0541174,5.26635Q1.0721276,5.14493,1.0960736,5.02455Q1.12002,4.90416,1.149844,4.7851Q1.179668,4.66603,1.215298,4.548579999999999Q1.250929,4.43112,1.2922799999999999,4.31555Q1.333631,4.19998,1.380602,4.08658Q1.427574,3.97318,1.480053,3.86222Q1.532533,3.75127,1.5903939999999999,3.64302Q1.648254,3.53477,1.711357,3.42949Q1.774459,3.32421,1.842652,3.22215Q1.910844,3.12009,1.983962,3.0215Q2.05708,2.92291,2.13495,2.82803Q2.21282,2.73315,2.2952399999999997,2.6422Q2.37767,2.55126,2.46447,2.46447Q2.55126,2.37767,2.6422,2.2952399999999997Q2.73315,2.21282,2.82803,2.13495Q2.92291,2.05708,3.0215,1.983962Q3.12009,1.910844,3.22215,1.842652Q3.32421,1.774459,3.42949,1.711357Q3.53477,1.648254,3.64302,1.5903939999999999Q3.75127,1.532533,3.86222,1.480053Q3.97318,1.427574,4.08658,1.380602Q4.19998,1.333631,4.31555,1.2922799999999999Q4.43112,1.250929,4.548579999999999,1.215298Q4.66603,1.179668,4.7851,1.149844Q4.90416,1.12002,5.02455,1.0960736Q5.14493,1.0721276,5.26635,1.0541174Q5.38776,1.0361073,5.50991,1.0240764Q5.63207,1.0120454,5.75466,1.00602272Q5.87726,1,6,1Q6.12274,1,6.24534,1.00602272Q6.36793,1.0120454,6.49009,1.0240764Q6.61224,1.0361073,6.73365,1.0541174Q6.85507,1.0721276,6.97545,1.0960736Q7.09584,1.12002,7.2149,1.149844Q7.33396,1.179668,7.45142,1.215298Q7.56888,1.250929,7.68445,1.2922799999999999Q7.80002,1.333631,7.91342,1.380602Q8.02682,1.427574,8.13777,1.480053Q8.24873,1.532533,8.35698,1.5903939999999999Q8.46523,1.648254,8.570509999999999,1.711357Q8.67579,1.774459,8.77785,1.842652Q8.879909999999999,1.910844,8.9785,1.983962Q9.07708,2.05708,9.17197,2.13495Q9.26685,2.21282,9.35779,2.2952399999999997Q9.44874,2.37767,9.53553,2.46447Q9.62232,2.55126,9.70475,2.6422Q9.78718,2.73315,9.86505,2.82803Q9.94292,2.92291,10.01604,3.0215Q10.08915,3.12009,10.15735,3.22215Q10.22554,3.32421,10.28864,3.42949Q10.35174,3.53477,10.40961,3.64302Q10.46747,3.75127,10.51995,3.86222Q10.57242,3.97318,10.6194,4.08658Q10.66637,4.19998,10.70772,4.31555Q10.74907,4.43112,10.7847,4.548579999999999Q10.82033,4.66603,10.85015,4.7851Q10.87998,4.90416,10.90392,5.02455Q10.92787,5.14493,10.94588,5.26635Q10.96389,5.38776,10.97592,5.50991Q10.98795,5.63207,10.99398,5.75466Q11,5.87726,11,6ZM10,6Q10,5.80349,9.98074,5.60793Q9.96148,5.41237,9.92314,5.21964Q9.8848,5.02691,9.82776,4.83886Q9.77072,4.6508199999999995,9.69552,4.46927Q9.62032,4.28772,9.52768,4.1144099999999995Q9.43505,3.94111,9.32588,3.77772Q9.2167,3.61433,9.09204,3.46243Q8.96738,3.31052,8.82843,3.17157Q8.68948,3.03262,8.537569999999999,2.90796Q8.385670000000001,2.7833,8.22228,2.6741200000000003Q8.05889,2.56495,7.88559,2.4723100000000002Q7.71228,2.37968,7.53073,2.30448Q7.34918,2.22928,7.16114,2.17224Q6.97309,2.1151999999999997,6.78036,2.07686Q6.58763,2.03852,6.39207,2.01926Q6.19651,2,6,2Q5.80349,2,5.60793,2.01926Q5.41237,2.03852,5.21964,2.07686Q5.02691,2.1151999999999997,4.83886,2.17224Q4.6508199999999995,2.22928,4.46927,2.30448Q4.28772,2.37968,4.1144099999999995,2.4723100000000002Q3.94111,2.56495,3.77772,2.6741200000000003Q3.61433,2.7833,3.46243,2.90796Q3.31052,3.03262,3.17157,3.17157Q3.03262,3.31052,2.90796,3.46243Q2.7833,3.61433,2.6741200000000003,3.77772Q2.56495,3.94111,2.4723100000000002,4.1144099999999995Q2.37968,4.28772,2.30448,4.46927Q2.22928,4.6508199999999995,2.17224,4.83886Q2.1151999999999997,5.02691,2.07686,5.21964Q2.03852,5.41237,2.01926,5.60793Q2,5.80349,2,6Q2,6.19651,2.01926,6.39207Q2.03852,6.58763,2.07686,6.78036Q2.1151999999999997,6.97309,2.17224,7.16114Q2.22928,7.34918,2.30448,7.53073Q2.37968,7.71228,2.4723100000000002,7.88559Q2.56495,8.05889,2.6741200000000003,8.22228Q2.7833,8.385670000000001,2.90796,8.537569999999999Q3.03262,8.68948,3.17157,8.82843Q3.31052,8.96738,3.46243,9.09204Q3.61433,9.2167,3.77772,9.32588Q3.94111,9.43505,4.1144099999999995,9.52768Q4.28772,9.62032,4.46927,9.69552Q4.6508199999999995,9.77072,4.83886,9.82776Q5.02691,9.8848,5.21964,9.92314Q5.41237,9.96148,5.60793,9.98074Q5.80349,10,6,10Q6.19651,10,6.39207,9.98074Q6.58763,9.96148,6.78036,9.92314Q6.97309,9.8848,7.16114,9.82776Q7.34918,9.77072,7.53073,9.69552Q7.71228,9.62032,7.88559,9.52768Q8.05889,9.43505,8.22228,9.32588Q8.385670000000001,9.2167,8.537569999999999,9.09204Q8.68948,8.96738,8.82843,8.82843Q8.96738,8.68948,9.09204,8.537569999999999Q9.2167,8.385670000000001,9.32588,8.22228Q9.43505,8.05889,9.52768,7.88559Q9.62032,7.71228,9.69552,7.53073Q9.77072,7.34918,9.82776,7.16114Q9.8848,6.97309,9.92314,6.78036Q9.96148,6.58763,9.98074,6.39207Q10,6.19651,10,6Z" fill-rule="evenodd" fill="#00A85F" fill-opacity="1"/></g><g><path d="M5.49999701171875,8.2399603125L8.53526701171875,4.9286783125L7.79810701171875,4.2529623125L5.5000070117187505,6.7600403125L4.53527201171875,5.7075603125L3.79810201171875,6.3832603125L5.49999701171875,8.2399603125Z" fill-rule="evenodd" fill="#00A85F" fill-opacity="1"/></g></g></svg>