<svg xmlns="http://www.w3.org/2000/svg" xmlns:xlink="http://www.w3.org/1999/xlink" fill="none" version="1.1" width="32" height="32" viewBox="0 0 32 32"><defs><clipPath id="master_svg0_102_42554"><rect x="0" y="0" width="32" height="32" rx="0"/></clipPath><linearGradient x1="0.5" y1="0" x2="0.5" y2="1" id="master_svg1_68_51348"><stop offset="0%" stop-color="#7098FF" stop-opacity="1"/><stop offset="100%" stop-color="#7098FF" stop-opacity="0"/></linearGradient></defs><g clip-path="url(#master_svg0_102_42554)"><g><path d="M20.0002921875,28L12.0003221875,28L12.0003221875,13.33333L20.0002921875,13.33333L20.0002921875,28ZM22.6669921875,28L22.6669921875,13.33333L29.3336921875,13.33333L29.3336921875,26.6667C29.3336921875,27.4031,28.7366921875,28,28.0002921875,28L22.6669921875,28ZM9.3336621875,28L4.0003221875,28C3.2639521875,28,2.6669921875,27.4031,2.6669921875,26.6667L2.6669921875,13.33333L9.3336621875,13.33333L9.3336621875,28ZM29.3336921875,10.66667L2.6669921875,10.66667L2.6669921875,5.33333C2.6669921875,4.59696,3.2639521875,4,4.0003221875,4L28.0002921875,4C28.7366921875,4,29.3336921875,4.59696,29.3336921875,5.33333L29.3336921875,10.66667Z" fill="url(#master_svg1_68_51348)" fill-opacity="1"/><path d="M29.5836921875,10.91667L29.5836921875,5.33333Q29.5836921875,4.677495,29.1198921875,4.213751Q28.6561921875,3.75,28.0002921875,3.75L4.0003221875,3.75Q3.3444921875,3.75,2.8807421875,4.21375Q2.4169921875,4.6775,2.4169921875,5.33333L2.4169921875,10.91667L29.5836921875,10.91667ZM28.7663921875,4.567302Q29.0836921875,4.8846,29.0836921875,5.33333L29.0836921875,10.41667L2.9169921875,10.41667L2.9169921875,5.33333Q2.9169921875,4.884607,3.2342951875,4.567303Q3.5515991875,4.25,4.0003221875,4.25L28.0002921875,4.25Q28.4490921875,4.25,28.7663921875,4.567302ZM9.5836621875,28.25L9.5836621875,13.08333L2.4169921875,13.08333L2.4169921875,26.6667Q2.4169921875,27.3225,2.8807431875,27.7863Q3.3444891875,28.25,4.0003221875,28.25L9.5836621875,28.25ZM20.2502921875,28.25L20.2502921875,13.08333L11.7503221875,13.08333L11.7503221875,28.25L20.2502921875,28.25ZM22.4169921875,28.25L28.0002921875,28.25Q28.6561921875,28.25,29.1198921875,27.7863Q29.5836921875,27.3225,29.5836921875,26.6667L29.5836921875,13.08333L22.4169921875,13.08333L22.4169921875,28.25ZM9.0836621875,13.58333L9.0836621875,27.75L4.0003221875,27.75Q3.5515951875000003,27.75,3.2342941874999998,27.4327Q2.9169921875,27.1154,2.9169921875,26.6667L2.9169921875,13.58333L9.0836621875,13.58333ZM19.7502921875,13.58333L19.7502921875,27.75L12.2503221875,27.75L12.2503221875,13.58333L19.7502921875,13.58333ZM28.7663921875,27.4327Q28.4490921875,27.75,28.0002921875,27.75L22.9169921875,27.75L22.9169921875,13.58333L29.0836921875,13.58333L29.0836921875,26.6667Q29.0836921875,27.1154,28.7663921875,27.4327Z" fill-rule="evenodd" fill="#2F69FE" fill-opacity="0.4000000059604645"/></g></g></svg>