<svg xmlns="http://www.w3.org/2000/svg" xmlns:xlink="http://www.w3.org/1999/xlink" fill="none" version="1.1" width="20" height="20" viewBox="0 0 20 20"><g><g></g><g><path d="M10.000078046875,18.333364123535155Q10.204648046875,18.333364123535155,10.408978046875,18.323264123535157Q10.613308046875,18.313264123535156,10.816888046875,18.293164123535156Q11.020478046875,18.273164123535157,11.222838046875,18.243164123535156Q11.425188046875,18.213064123535155,11.625838046875,18.173164123535155Q11.826448046875,18.133264123535156,12.024948046875,18.083564123535155Q12.223348046875,18.033864123535157,12.419148046875,17.974464123535157Q12.614848046875,17.915064123535156,12.807448046875,17.846164123535157Q13.000148046875,17.777264123535158,13.189148046875,17.698964123535156Q13.378148046875,17.620664123535157,13.563048046875,17.533264123535155Q13.747948046875,17.445764123535156,13.928348046875,17.349364123535157Q14.108848046875,17.252864123535154,14.284248046875,17.147764123535154Q14.459748046875,17.042564123535158,14.629848046875,16.928864123535156Q14.799948046875,16.815264123535158,14.964248046875,16.693364123535154Q15.128548046875,16.571564123535154,15.286648046875,16.441764123535158Q15.444848046875,16.311964123535155,15.596448046875,16.174564123535156Q15.747948046875,16.037164123535156,15.892648046875,15.892564123535156Q16.037248046875,15.747864123535157,16.174648046875,15.596364123535157Q16.312048046875,15.444764123535156,16.441848046875002,15.286564123535156Q16.571648046874998,15.128464123535156,16.693448046874998,14.964164123535156Q16.815348046875002,14.799864123535157,16.928948046875,14.629764123535157Q17.042648046875,14.459664123535156,17.147848046874998,14.284164123535156Q17.252948046874998,14.108764123535156,17.349448046875,13.928264123535156Q17.445848046875,13.747864123535157,17.533348046875,13.562964123535156Q17.620748046875,13.378064123535156,17.699048046875,13.189064123535156Q17.777348046875,13.000064123535156,17.846248046875,12.807364123535157Q17.915148046875,12.614764123535156,17.974548046875,12.419064123535156Q18.033948046875,12.223264123535156,18.083648046875,12.024864123535156Q18.133348046875,11.826364123535157,18.173248046875,11.625744123535156Q18.213148046875,11.425104123535156,18.243248046875,11.222754123535156Q18.273248046875,11.020394123535157,18.293248046875,10.816804123535157Q18.313348046875,10.613224123535156,18.323348046875,10.408894123535156Q18.333448046875,10.204564123535157,18.333448046875,9.999994123535156Q18.333448046875,9.795424123535156,18.323348046875,9.591104123535157Q18.313348046875,9.386774123535156,18.293248046875,9.183184123535156Q18.273248046875,8.979604123535157,18.243248046875,8.777244123535155Q18.213148046875,8.574884123535156,18.173248046875,8.374244123535156Q18.133348046875,8.173604123535156,18.083648046875,7.975164123535157Q18.033948046875,7.776724123535156,17.974548046875,7.5809541235351565Q17.915148046875,7.385194123535157,17.846248046875,7.192584123535156Q17.777348046875,6.999964123535157,17.699048046875,6.810964123535157Q17.620748046875,6.6219641235351565,17.533348046875,6.437034123535156Q17.445848046875,6.252104123535156,17.349448046875,6.071694123535156Q17.252948046874998,5.8912741235351564,17.147848046874998,5.715804123535157Q17.042648046875,5.5403441235351565,16.928948046875,5.370244123535157Q16.815348046875002,5.200154123535157,16.693448046874998,5.035834123535157Q16.571648046874998,4.871524123535156,16.441848046875002,4.713384123535157Q16.312048046875,4.555254123535157,16.174648046875,4.403674123535156Q16.037248046875,4.252094123535157,15.892648046875,4.107444123535156Q15.747948046875,3.9627841235351564,15.596448046875,3.825404123535156Q15.444848046875,3.6880241235351563,15.286648046875,3.5582441235351565Q15.128548046875,3.4284641235351563,14.964248046875,3.3066041235351564Q14.799948046875,3.184734123535156,14.629848046875,3.0710841235351563Q14.459748046875,2.9574341235351564,14.284248046875,2.852254123535156Q14.108848046875,2.7470841235351564,13.928348046875,2.6506531235351565Q13.747948046875,2.554219123535156,13.563048046875,2.466753123535156Q13.378148046875,2.379287123535156,13.189148046875,2.301001123535156Q13.000148046875,2.2227151235351563,12.807448046875,2.1537971235351563Q12.614848046875,2.0848791235351563,12.419148046875,2.025495123535156Q12.223348046875,1.9661101235351564,12.024948046875,1.9164041235351563Q11.826448046875,1.8666971235351562,11.625828046875,1.8267871235351563Q11.425188046875,1.7868771235351562,11.222838046875,1.7568598235351562Q11.020478046875,1.7268429235351563,10.816888046875,1.7067914235351562Q10.613308046875,1.6867398235351563,10.408978046875,1.6767020235351562Q10.204648046875,1.6666641235351562,10.000078046875,1.6666641235351562Q9.795508046875,1.6666641235351562,9.591188046875,1.6767020235351562Q9.386858046875,1.6867398235351563,9.183268046875,1.7067914235351562Q8.979688046875001,1.7268429235351563,8.777328046874999,1.7568598235351562Q8.574968046875,1.7868771235351562,8.374328046875,1.8267871235351563Q8.173688046875,1.8666971235351562,7.975248046875,1.9164041235351563Q7.776808046875,1.9661101235351564,7.581038046875,2.025495123535156Q7.385278046875,2.0848791235351563,7.192668046875,2.1537971235351563Q7.000048046875,2.2227151235351563,6.811048046875,2.301001123535156Q6.622048046875,2.379287123535156,6.437118046875,2.466753123535156Q6.252188046875,2.554219123535156,6.071778046875,2.6506531235351565Q5.891358046875,2.7470841235351564,5.715888046875,2.852254123535156Q5.540428046875,2.9574341235351564,5.3703280468750005,3.0710841235351563Q5.2002380468750005,3.184734123535156,5.035918046875,3.3066041235351564Q4.871608046875,3.4284641235351563,4.7134680468750005,3.5582441235351565Q4.555338046875001,3.6880241235351563,4.403758046875,3.825404123535156Q4.252178046875001,3.9627841235351564,4.107528046875,4.107444123535156Q3.962868046875,4.252094123535157,3.825488046875,4.403674123535156Q3.688108046875,4.555254123535157,3.5583280468750003,4.713384123535157Q3.428548046875,4.871524123535156,3.306688046875,5.035834123535157Q3.184818046875,5.200154123535157,3.071168046875,5.370244123535157Q2.957518046875,5.5403441235351565,2.852338046875,5.715804123535157Q2.747168046875,5.8912741235351564,2.6507370468750002,6.071694123535156Q2.554303046875,6.252104123535156,2.466837046875,6.437034123535156Q2.379371046875,6.6219641235351565,2.301085046875,6.810964123535157Q2.222799046875,6.999964123535157,2.153881046875,7.192584123535156Q2.084963046875,7.385194123535157,2.025579046875,7.5809541235351565Q1.966194046875,7.776724123535156,1.916488046875,7.975164123535157Q1.866781046875,8.173604123535156,1.826871046875,8.374244123535156Q1.786961046875,8.574884123535156,1.756943746875,8.777244123535155Q1.726926846875,8.979604123535157,1.706875346875,9.183184123535156Q1.686823746875,9.386774123535156,1.676785946875,9.591104123535157Q1.666748046875,9.795424123535156,1.666748046875,9.999994123535156Q1.666748046875,10.204564123535157,1.676785946875,10.408894123535156Q1.686823746875,10.613224123535156,1.706875346875,10.816804123535157Q1.726926846875,11.020394123535157,1.756943746875,11.222754123535156Q1.786961046875,11.425104123535156,1.826871046875,11.625754123535156Q1.866781046875,11.826364123535157,1.916488046875,12.024864123535156Q1.966194046875,12.223264123535156,2.025579046875,12.419064123535156Q2.084963046875,12.614764123535156,2.153881046875,12.807364123535157Q2.222799046875,13.000064123535156,2.301085046875,13.189064123535156Q2.379371046875,13.378064123535156,2.466837046875,13.562964123535156Q2.554303046875,13.747864123535157,2.6507370468750002,13.928264123535156Q2.747168046875,14.108764123535156,2.852338046875,14.284164123535156Q2.957518046875,14.459664123535156,3.071168046875,14.629764123535157Q3.184818046875,14.799864123535157,3.306688046875,14.964164123535156Q3.428548046875,15.128464123535156,3.5583280468750003,15.286564123535156Q3.688108046875,15.444764123535156,3.825488046875,15.596364123535157Q3.962868046875,15.747864123535157,4.107528046875,15.892564123535156Q4.252178046875001,16.037164123535156,4.403758046875,16.174564123535156Q4.555338046875001,16.311964123535155,4.7134680468750005,16.441764123535158Q4.871608046875,16.571564123535154,5.035918046875,16.693364123535154Q5.2002380468750005,16.815264123535158,5.3703280468750005,16.928864123535156Q5.540428046875,17.042564123535158,5.715888046875,17.147764123535154Q5.891358046875,17.252864123535154,6.071778046875,17.349364123535157Q6.252188046875,17.445764123535156,6.437118046875,17.533264123535155Q6.622048046875,17.620664123535157,6.811048046875,17.698964123535156Q7.000048046875,17.777264123535158,7.192668046875,17.846164123535157Q7.385278046875,17.915064123535156,7.581038046875,17.974464123535157Q7.776808046875,18.033864123535157,7.975248046875,18.083564123535155Q8.173688046875,18.133264123535156,8.374328046875,18.173164123535155Q8.574968046875,18.213064123535155,8.777328046874999,18.243164123535156Q8.979688046875001,18.273164123535157,9.183268046875,18.293164123535156Q9.386858046875,18.313264123535156,9.591188046875,18.323264123535157Q9.795508046875,18.333364123535155,10.000078046875,18.333364123535155ZM14.287848046875,13.109664123535156L11.178478046875,9.999334123535156L14.287948046875,6.889154123535156C14.450648046875,6.726444123535156,14.450648046875,6.462274123535156,14.287948046875,6.2995641235351565L13.698748046875,5.7103641235351565C13.536048046875,5.547644123535156,13.272248046875,5.547654123535157,13.109548046875,5.7103641235351565L9.999968046875,8.820824123535157L6.888798046875,5.711004123535156C6.726088046875,5.548294123535156,6.462328046875,5.548294123535156,6.299608046875,5.711004123535156L5.710418046875,6.300204123535156C5.547698046875,6.462914123535156,5.547698046875,6.726674123535156,5.710418046875,6.889394123535157L8.821458046875,9.999334123535156L5.710418046875,13.109664123535156C5.547698046875,13.272364123535157,5.547698046875,13.536164123535157,5.710418046875,13.698864123535156L6.299608046875,14.288064123535156C6.462328046875,14.450764123535157,6.726088046875,14.451164123535156,6.888798046875,14.288464123535157L9.999968046875,11.177844123535156L13.109548046875,14.288064123535156C13.272248046875,14.450764123535157,13.535948046875,14.450764123535157,13.698648046875,14.288064123535156L14.287848046875,13.698864123535156C14.450648046875,13.536164123535157,14.450648046875,13.272364123535157,14.287848046875,13.109664123535156Z" fill-rule="evenodd" fill="#FA3C58" fill-opacity="1"/></g></g></svg>