<svg xmlns="http://www.w3.org/2000/svg" xmlns:xlink="http://www.w3.org/1999/xlink" fill="none" version="1.1" width="20" height="24" viewBox="0 0 20 24"><g><g><g><path d="M10.000078046875,20.333366626930236C5.4000780468750005,20.333366626930236,1.666748046875,16.599966626930236,1.666748046875,11.999996626930237C1.666748046875,7.399996626930237,5.4000780468750005,3.666666626930237,10.000078046875,3.666666626930237C12.208448046875,3.666666626930237,14.333448046875,4.541666626930237,15.891748046875,6.108336626930237C17.458448046875,7.666666626930237,18.333448046875,9.791666626930237,18.333448046875,11.999996626930237C18.333448046875,16.599966626930236,14.600048046875,20.333366626930236,10.000078046875,20.333366626930236ZM10.969508046875,7.988666626930237C10.969508046875,8.523706626930236,10.535618046875,8.957396626930237,10.000588046875,8.957396626930237C9.465548046875,8.957396626930237,9.031658046875,8.523706626930236,9.031658046875,7.988666626930237C9.031658046875,7.453626626930237,9.465548046875,7.019936626930237,10.000588046875,7.019936626930237C10.535618046875,7.019936626930237,10.969508046875,7.453626626930237,10.969508046875,7.988666626930237ZM9.166748046875,16.570266626930238L9.154138046875001,10.736986626930236C9.161168046875,10.512046626930236,9.345548046874999,10.333336626930237,9.570598046875,10.333336626930237L10.429568046875,10.333336626930237C10.654618046875,10.333336626930237,10.838998046875,10.512046626930236,10.846028046875,10.736986626930236L10.833418046875,16.570266626930238C10.840758046875,16.805366626930237,10.651968046875,16.999966626930238,10.416748046875,16.999966626930238L9.583418046875,16.999966626930238C9.348198046875,16.999966626930238,9.159398046875001,16.805366626930237,9.166748046875,16.570266626930238Z" fill-rule="evenodd" fill="#2F69FE" fill-opacity="1"/></g></g></g></svg>