<svg xmlns="http://www.w3.org/2000/svg" xmlns:xlink="http://www.w3.org/1999/xlink" fill="none" version="1.1" width="20" height="24" viewBox="0 0 20 24"><g><g><g><path d="M1.666748046875,12.00001701171875C1.666748046875,16.59998701171875,5.4000780468750005,20.33338701171875,10.000078046875,20.33338701171875C14.600048046875,20.33338701171875,18.333448046875,16.59998701171875,18.333448046875,12.00001701171875C18.333448046875,9.79168701171875,17.458448046875,7.66668701171875,15.891748046875,6.10835701171875C14.333448046875,4.54168701171875,12.208448046875,3.66668701171875,10.000078046875,3.66668701171875C5.4000780468750005,3.66668701171875,1.666748046875,7.4000170117187505,1.666748046875,12.00001701171875ZM14.698948046875,9.951287011718751L9.290448046875,15.55328701171875C9.136638046875,15.71238701171875,8.926678046875,15.80408701171875,8.705318046875,15.80798701171875C8.483968046874999,15.81198701171875,8.270748046875,15.72748701171875,8.112058046875,15.57408701171875L8.101478046875,15.56408701171875L5.306888046875001,12.78311701171875C5.144128046875,12.62035701171875,5.144128046875,12.35668701171875,5.306888046875001,12.19392701171875L5.895268046875,11.60473701171875C6.058028046875,11.44196701171875,6.321698046875,11.44196701171875,6.484458046875,11.60473701171875L8.678468046875,13.78588701171875L13.501848046875,8.79365701171875C13.661348046875,8.628047011718749,13.925048046875,8.62407701171875,14.090248046875,8.78388701171875L14.689248046875,9.362507011718751C14.854448046875,9.52221701171875,14.858448046875,9.78557701171875,14.698948046875,9.951287011718751Z" fill-rule="evenodd" fill="#22C777" fill-opacity="1"/></g></g></g></svg>