<svg xmlns="http://www.w3.org/2000/svg" xmlns:xlink="http://www.w3.org/1999/xlink" fill="none" version="1.1" width="16" height="16" viewBox="0 0 16 16"><defs><clipPath id="master_svg0_292_37030"><rect x="0" y="0" width="16" height="16" rx="0"/></clipPath></defs><g clip-path="url(#master_svg0_292_37030)"><g><path d="M8.000003373069763,14.666633373069763C4.318103373069763,14.666633373069763,1.3333333730697632,11.681833373069763,1.3333333730697632,8.000003373069763C1.3333333730697632,4.318103373069763,4.318103373069763,1.3333333730697632,8.000003373069763,1.3333333730697632C11.681833373069763,1.3333333730697632,14.666633373069763,4.318103373069763,14.666633373069763,8.000003373069763C14.666633373069763,11.681833373069763,11.681833373069763,14.666633373069763,8.000003373069763,14.666633373069763ZM8.000003373069763,13.333333373069763C10.945533373069763,13.333333373069763,13.333333373069763,10.945533373069763,13.333333373069763,8.000003373069763C13.333333373069763,5.054483373069763,10.945533373069763,2.6666633730697633,8.000003373069763,2.6666633730697633C5.054483373069763,2.6666633730697633,2.6666633730697633,5.054483373069763,2.6666633730697633,8.000003373069763C2.6666633730697633,10.945533373069763,5.054483373069763,13.333333373069763,8.000003373069763,13.333333373069763ZM7.333333373069763,10.000003373069763L8.666663373069763,10.000003373069763L8.666663373069763,11.333333373069763L7.333333373069763,11.333333373069763L7.333333373069763,10.000003373069763ZM7.333333373069763,4.666663373069763L8.666663373069763,4.666663373069763L8.666663373069763,8.666663373069763L7.333333373069763,8.666663373069763L7.333333373069763,4.666663373069763Z" fill="#FF3B52" fill-opacity="1"/></g></g></svg>