<svg xmlns="http://www.w3.org/2000/svg" xmlns:xlink="http://www.w3.org/1999/xlink" fill="none" version="1.1" width="22" height="22" viewBox="0 0 22 22"><defs><clipPath id="master_svg0_89_61105/89_60340"><rect x="0" y="0" width="22" height="22" rx="0"/></clipPath></defs><g clip-path="url(#master_svg0_89_61105/89_60340)"><g><path d="M13.592916015625,7.11090453125L8.407406015625,12.29629453125C8.049416015624999,12.65429453125,8.049416015624999,13.23469453125,8.407406015625,13.59269453125C8.765376015625,13.95069453125,9.345796015625,13.95069453125,9.703746015625,13.59269453125L14.889216015625,8.40726453125C15.963116015625,7.33332453125,15.963116015625,5.5921245312500005,14.889216015625,4.51818453125C13.815316015625,3.44424453125,12.074066015625,3.44424453125,11.000106015625,4.51818453125L5.814676015625,9.70363453125C4.024776015625,11.49351453125,4.024776015625,14.39549453125,5.814676015625,16.18549453125C7.604576015625,17.97539453125,10.506566015625001,17.97539453125,12.296446015625,16.18549453125L17.481916015625,10.99998453125L18.778316015625,12.29629453125L13.592916015625,17.48179453125C11.087006015625,19.98759453125,7.024176015625,19.98759453125,4.518316015625,17.48179453125C2.0124500156250003,14.97589453125,2.0124500156250003,10.91317453125,4.518316015625,8.40726453125L9.703746015625,3.2218245312500002C11.493636015625,1.43191953125,14.395716015625,1.43191953125,16.185616015625,3.2218245312500002C17.975516015625,5.01172453125,17.975516015625,7.91372453125,16.185616015625,9.70363453125L11.000106015625,14.88909453125C9.926226015625,15.96299453125,8.184976015625,15.96299453125,7.111046015625,14.88909453125C6.037096015625,13.81519453125,6.037096015625,12.07399453125,7.111046015625,10.99998453125L12.296446015625,5.81454453125L13.592916015625,7.11090453125Z" fill="currentColor" fill-opacity="1"/></g></g></svg>